<mxfile host="Electron" modified="2025-02-05T14:25:11.624Z" agent="Mozilla/5.0 (Windows NT 10.0; Win64; x64) AppleWebKit/537.36 (KHTML, like Gecko) draw.io/24.0.4 Chrome/120.0.6099.109 Electron/28.1.0 Safari/537.36" etag="ta2YRWQr1EfaVBX-K8A5" version="24.0.4" type="device">
  <diagram name="Page-1" id="lDwkG73ENCQTHn-8lbD1">
    <mxGraphModel dx="3292" dy="1662" grid="1" gridSize="10" guides="1" tooltips="1" connect="1" arrows="1" fold="1" page="1" pageScale="1" pageWidth="850" pageHeight="1100" math="0" shadow="0">
      <root>
        <mxCell id="0" />
        <mxCell id="1" parent="0" />
        <mxCell id="VrfV9DheiapsLLjhbMTD-66" value="" style="rounded=0;whiteSpace=wrap;html=1;" vertex="1" parent="1">
          <mxGeometry x="200" y="140" width="480" height="220" as="geometry" />
        </mxCell>
        <mxCell id="VrfV9DheiapsLLjhbMTD-57" value="" style="rounded=0;whiteSpace=wrap;html=1;" vertex="1" parent="1">
          <mxGeometry x="-390" y="560" width="550" height="160" as="geometry" />
        </mxCell>
        <mxCell id="VrfV9DheiapsLLjhbMTD-43" value="" style="rounded=0;whiteSpace=wrap;html=1;" vertex="1" parent="1">
          <mxGeometry x="-390" y="380" width="550" height="170" as="geometry" />
        </mxCell>
        <mxCell id="VrfV9DheiapsLLjhbMTD-38" value="&lt;font style=&quot;font-size: 10px;&quot;&gt;IDLE &#39;1&#39;&lt;/font&gt;" style="rounded=0;whiteSpace=wrap;html=1;strokeColor=#999999;fontColor=#999999;" vertex="1" parent="1">
          <mxGeometry x="-360" y="480.25" width="120" height="39.5" as="geometry" />
        </mxCell>
        <mxCell id="VrfV9DheiapsLLjhbMTD-39" value="&lt;font style=&quot;font-size: 10px;&quot;&gt;IDLE &#39;1&#39;&lt;/font&gt;" style="rounded=0;whiteSpace=wrap;html=1;strokeColor=#999999;fontColor=#999999;" vertex="1" parent="1">
          <mxGeometry y="480.25" width="120" height="39.5" as="geometry" />
        </mxCell>
        <mxCell id="VrfV9DheiapsLLjhbMTD-30" value="" style="rounded=0;whiteSpace=wrap;html=1;" vertex="1" parent="1">
          <mxGeometry x="170" y="380" width="510" height="325" as="geometry" />
        </mxCell>
        <mxCell id="VrfV9DheiapsLLjhbMTD-31" value="" style="rounded=0;whiteSpace=wrap;html=1;strokeWidth=1;dashed=1;dashPattern=1 4;" vertex="1" parent="1">
          <mxGeometry x="275" y="470" width="330" height="210" as="geometry" />
        </mxCell>
        <mxCell id="VrfV9DheiapsLLjhbMTD-23" value="" style="endArrow=none;html=1;strokeWidth=1;rounded=0;strokeColor=#999999;jumpStyle=gap;jumpSize=12;" edge="1" parent="1">
          <mxGeometry width="50" height="50" relative="1" as="geometry">
            <mxPoint x="220" y="480" as="sourcePoint" />
            <mxPoint x="460" y="519.76" as="targetPoint" />
            <Array as="points">
              <mxPoint x="440" y="480" />
              <mxPoint x="440" y="520" />
            </Array>
          </mxGeometry>
        </mxCell>
        <mxCell id="VrfV9DheiapsLLjhbMTD-19" value="" style="endArrow=none;html=1;strokeWidth=1;rounded=0;strokeColor=#999999;jumpStyle=gap;jumpSize=12;" edge="1" parent="1">
          <mxGeometry width="50" height="50" relative="1" as="geometry">
            <mxPoint x="240" y="480" as="sourcePoint" />
            <mxPoint x="300" y="519.76" as="targetPoint" />
            <Array as="points">
              <mxPoint x="240" y="520" />
            </Array>
          </mxGeometry>
        </mxCell>
        <mxCell id="VrfV9DheiapsLLjhbMTD-60" style="edgeStyle=orthogonalEdgeStyle;rounded=0;orthogonalLoop=1;jettySize=auto;html=1;exitX=1;exitY=1;exitDx=0;exitDy=0;entryX=0;entryY=0.5;entryDx=0;entryDy=0;" edge="1" parent="1" source="VrfV9DheiapsLLjhbMTD-1" target="VrfV9DheiapsLLjhbMTD-2">
          <mxGeometry relative="1" as="geometry">
            <Array as="points">
              <mxPoint x="482" y="270" />
              <mxPoint x="482" y="270" />
              <mxPoint x="482" y="310" />
            </Array>
          </mxGeometry>
        </mxCell>
        <mxCell id="VrfV9DheiapsLLjhbMTD-61" style="edgeStyle=orthogonalEdgeStyle;rounded=0;orthogonalLoop=1;jettySize=auto;html=1;exitX=0;exitY=1;exitDx=0;exitDy=0;entryX=1;entryY=0.5;entryDx=0;entryDy=0;jumpStyle=gap;" edge="1" parent="1" source="VrfV9DheiapsLLjhbMTD-1" target="VrfV9DheiapsLLjhbMTD-4">
          <mxGeometry relative="1" as="geometry">
            <Array as="points">
              <mxPoint x="398" y="270" />
              <mxPoint x="398" y="270" />
              <mxPoint x="398" y="310" />
            </Array>
          </mxGeometry>
        </mxCell>
        <mxCell id="VrfV9DheiapsLLjhbMTD-1" value="IDLE" style="ellipse;whiteSpace=wrap;html=1;" vertex="1" parent="1">
          <mxGeometry x="380" y="190" width="120" height="60" as="geometry" />
        </mxCell>
        <mxCell id="VrfV9DheiapsLLjhbMTD-63" style="edgeStyle=orthogonalEdgeStyle;rounded=0;orthogonalLoop=1;jettySize=auto;html=1;exitX=0.5;exitY=0;exitDx=0;exitDy=0;entryX=1;entryY=0.5;entryDx=0;entryDy=0;" edge="1" parent="1" source="VrfV9DheiapsLLjhbMTD-2" target="VrfV9DheiapsLLjhbMTD-1">
          <mxGeometry relative="1" as="geometry" />
        </mxCell>
        <mxCell id="VrfV9DheiapsLLjhbMTD-2" value="&lt;div&gt;WINDOW_READ&lt;/div&gt;" style="ellipse;whiteSpace=wrap;html=1;" vertex="1" parent="1">
          <mxGeometry x="520" y="280" width="120" height="60" as="geometry" />
        </mxCell>
        <mxCell id="VrfV9DheiapsLLjhbMTD-62" style="edgeStyle=orthogonalEdgeStyle;rounded=0;orthogonalLoop=1;jettySize=auto;html=1;exitX=0.5;exitY=0;exitDx=0;exitDy=0;entryX=0;entryY=0.5;entryDx=0;entryDy=0;" edge="1" parent="1" source="VrfV9DheiapsLLjhbMTD-4" target="VrfV9DheiapsLLjhbMTD-1">
          <mxGeometry relative="1" as="geometry" />
        </mxCell>
        <mxCell id="VrfV9DheiapsLLjhbMTD-4" value="BUF_READ" style="ellipse;whiteSpace=wrap;html=1;" vertex="1" parent="1">
          <mxGeometry x="239" y="280" width="120" height="60" as="geometry" />
        </mxCell>
        <mxCell id="VrfV9DheiapsLLjhbMTD-5" value="&lt;b&gt;uart_rx&lt;/b&gt;" style="rounded=0;whiteSpace=wrap;html=1;" vertex="1" parent="1">
          <mxGeometry x="300" y="500" width="120" height="40" as="geometry" />
        </mxCell>
        <mxCell id="VrfV9DheiapsLLjhbMTD-6" value="" style="endArrow=classic;html=1;rounded=0;" edge="1" parent="1">
          <mxGeometry width="50" height="50" relative="1" as="geometry">
            <mxPoint x="519.76" y="460" as="sourcePoint" />
            <mxPoint x="519.76" y="500" as="targetPoint" />
          </mxGeometry>
        </mxCell>
        <mxCell id="VrfV9DheiapsLLjhbMTD-7" value="&lt;b&gt;uart_tx&lt;/b&gt;" style="rounded=0;whiteSpace=wrap;html=1;" vertex="1" parent="1">
          <mxGeometry x="460" y="500" width="120" height="40" as="geometry" />
        </mxCell>
        <mxCell id="VrfV9DheiapsLLjhbMTD-8" value="&lt;b&gt;fir&lt;/b&gt;" style="rounded=0;whiteSpace=wrap;html=1;" vertex="1" parent="1">
          <mxGeometry x="300" y="580" width="280" height="80" as="geometry" />
        </mxCell>
        <mxCell id="VrfV9DheiapsLLjhbMTD-9" value="" style="endArrow=classic;html=1;rounded=0;" edge="1" parent="1">
          <mxGeometry width="50" height="50" relative="1" as="geometry">
            <mxPoint x="359.76" y="460" as="sourcePoint" />
            <mxPoint x="359.76" y="500" as="targetPoint" />
          </mxGeometry>
        </mxCell>
        <mxCell id="VrfV9DheiapsLLjhbMTD-10" value="rx" style="text;html=1;align=center;verticalAlign=middle;resizable=0;points=[];autosize=1;strokeColor=none;fillColor=none;" vertex="1" parent="1">
          <mxGeometry x="344" y="435" width="30" height="30" as="geometry" />
        </mxCell>
        <mxCell id="VrfV9DheiapsLLjhbMTD-11" value="tx" style="text;html=1;align=center;verticalAlign=middle;resizable=0;points=[];autosize=1;strokeColor=none;fillColor=none;" vertex="1" parent="1">
          <mxGeometry x="504" y="435" width="30" height="30" as="geometry" />
        </mxCell>
        <mxCell id="VrfV9DheiapsLLjhbMTD-12" value="" style="endArrow=classic;html=1;rounded=0;" edge="1" parent="1">
          <mxGeometry width="50" height="50" relative="1" as="geometry">
            <mxPoint x="359.76" y="540" as="sourcePoint" />
            <mxPoint x="359.76" y="580" as="targetPoint" />
          </mxGeometry>
        </mxCell>
        <mxCell id="VrfV9DheiapsLLjhbMTD-13" value="data[N-1:0]" style="text;html=1;align=center;verticalAlign=middle;resizable=0;points=[];autosize=1;strokeColor=none;fillColor=none;" vertex="1" parent="1">
          <mxGeometry x="356" y="544" width="80" height="30" as="geometry" />
        </mxCell>
        <mxCell id="VrfV9DheiapsLLjhbMTD-14" value="" style="endArrow=classic;html=1;rounded=0;" edge="1" parent="1">
          <mxGeometry width="50" height="50" relative="1" as="geometry">
            <mxPoint x="519.76" y="580" as="sourcePoint" />
            <mxPoint x="519.76" y="540" as="targetPoint" />
          </mxGeometry>
        </mxCell>
        <mxCell id="VrfV9DheiapsLLjhbMTD-15" value="data[N-1:0]" style="text;html=1;align=center;verticalAlign=middle;resizable=0;points=[];autosize=1;strokeColor=none;fillColor=none;" vertex="1" parent="1">
          <mxGeometry x="519" y="545" width="80" height="30" as="geometry" />
        </mxCell>
        <mxCell id="VrfV9DheiapsLLjhbMTD-16" value="&lt;font style=&quot;font-size: 8px;&quot;&gt;input&lt;/font&gt;" style="text;html=1;align=center;verticalAlign=middle;resizable=0;points=[];autosize=1;strokeColor=none;fillColor=none;" vertex="1" parent="1">
          <mxGeometry x="339" y="574" width="40" height="30" as="geometry" />
        </mxCell>
        <mxCell id="VrfV9DheiapsLLjhbMTD-17" value="&lt;font style=&quot;font-size: 8px;&quot;&gt;output&lt;/font&gt;" style="text;html=1;align=center;verticalAlign=middle;resizable=0;points=[];autosize=1;strokeColor=none;fillColor=none;" vertex="1" parent="1">
          <mxGeometry x="494" y="574" width="50" height="30" as="geometry" />
        </mxCell>
        <mxCell id="VrfV9DheiapsLLjhbMTD-18" value="rst" style="text;html=1;align=center;verticalAlign=middle;resizable=0;points=[];autosize=1;strokeColor=none;fillColor=none;fontColor=#999999;" vertex="1" parent="1">
          <mxGeometry x="179" y="465" width="40" height="30" as="geometry" />
        </mxCell>
        <mxCell id="VrfV9DheiapsLLjhbMTD-24" value="" style="endArrow=none;html=1;strokeWidth=1;rounded=0;strokeColor=#999999;jumpStyle=gap;jumpSize=12;entryX=0;entryY=0.5;entryDx=0;entryDy=0;" edge="1" parent="1" target="VrfV9DheiapsLLjhbMTD-8">
          <mxGeometry width="50" height="50" relative="1" as="geometry">
            <mxPoint x="240" y="520" as="sourcePoint" />
            <mxPoint x="320" y="539.76" as="targetPoint" />
            <Array as="points">
              <mxPoint x="240" y="620" />
            </Array>
          </mxGeometry>
        </mxCell>
        <mxCell id="VrfV9DheiapsLLjhbMTD-25" value="&lt;font style=&quot;font-size: 8px;&quot;&gt;reset&lt;/font&gt;" style="text;html=1;align=center;verticalAlign=middle;resizable=0;points=[];autosize=1;strokeColor=none;fillColor=none;" vertex="1" parent="1">
          <mxGeometry x="295" y="604" width="40" height="30" as="geometry" />
        </mxCell>
        <mxCell id="VrfV9DheiapsLLjhbMTD-27" value="" style="triangle;whiteSpace=wrap;html=1;rotation=90;" vertex="1" parent="1">
          <mxGeometry x="304.5" y="580.5" width="21" height="20" as="geometry" />
        </mxCell>
        <mxCell id="VrfV9DheiapsLLjhbMTD-28" value="" style="triangle;whiteSpace=wrap;html=1;rotation=90;" vertex="1" parent="1">
          <mxGeometry x="304.5" y="500.5" width="21" height="20" as="geometry" />
        </mxCell>
        <mxCell id="VrfV9DheiapsLLjhbMTD-29" value="" style="triangle;whiteSpace=wrap;html=1;rotation=90;" vertex="1" parent="1">
          <mxGeometry x="465" y="500.5" width="21" height="20" as="geometry" />
        </mxCell>
        <mxCell id="VrfV9DheiapsLLjhbMTD-32" value="" style="endArrow=classic;html=1;rounded=0;strokeColor=#999999;" edge="1" parent="1">
          <mxGeometry width="50" height="50" relative="1" as="geometry">
            <mxPoint x="270" y="519.76" as="sourcePoint" />
            <mxPoint x="300" y="519.76" as="targetPoint" />
          </mxGeometry>
        </mxCell>
        <mxCell id="VrfV9DheiapsLLjhbMTD-33" value="" style="endArrow=classic;html=1;rounded=0;strokeColor=#999999;" edge="1" parent="1">
          <mxGeometry width="50" height="50" relative="1" as="geometry">
            <mxPoint x="450" y="520" as="sourcePoint" />
            <mxPoint x="460" y="519.76" as="targetPoint" />
          </mxGeometry>
        </mxCell>
        <mxCell id="VrfV9DheiapsLLjhbMTD-34" value="" style="endArrow=classic;html=1;rounded=0;strokeColor=#999999;" edge="1" parent="1">
          <mxGeometry width="50" height="50" relative="1" as="geometry">
            <mxPoint x="270" y="619.76" as="sourcePoint" />
            <mxPoint x="300" y="619.76" as="targetPoint" />
          </mxGeometry>
        </mxCell>
        <mxCell id="VrfV9DheiapsLLjhbMTD-35" value="&lt;b&gt;&lt;font style=&quot;font-size: 18px;&quot;&gt;Structural Overview&lt;/font&gt;&lt;/b&gt;" style="text;html=1;align=center;verticalAlign=middle;resizable=0;points=[];autosize=1;strokeColor=none;fillColor=none;" vertex="1" parent="1">
          <mxGeometry x="345" y="390" width="190" height="40" as="geometry" />
        </mxCell>
        <mxCell id="VrfV9DheiapsLLjhbMTD-36" value="&lt;font style=&quot;font-size: 10px;&quot;&gt;Start &#39;0&#39;&lt;/font&gt;" style="rounded=0;whiteSpace=wrap;html=1;" vertex="1" parent="1">
          <mxGeometry x="-240" y="480.25" width="40" height="39.5" as="geometry" />
        </mxCell>
        <mxCell id="VrfV9DheiapsLLjhbMTD-37" value="&lt;span style=&quot;font-size: 10px;&quot;&gt;Data&lt;/span&gt;" style="rounded=0;whiteSpace=wrap;html=1;" vertex="1" parent="1">
          <mxGeometry x="-200" y="480.25" width="200" height="39.5" as="geometry" />
        </mxCell>
        <mxCell id="VrfV9DheiapsLLjhbMTD-40" value="&lt;font style=&quot;font-size: 10px;&quot;&gt;N bits&lt;/font&gt;" style="text;html=1;align=center;verticalAlign=middle;resizable=0;points=[];autosize=1;strokeColor=none;fillColor=none;" vertex="1" parent="1">
          <mxGeometry x="-125" y="432" width="50" height="30" as="geometry" />
        </mxCell>
        <mxCell id="VrfV9DheiapsLLjhbMTD-41" value="" style="endArrow=none;dashed=1;html=1;dashPattern=1 4;strokeWidth=1;rounded=0;" edge="1" parent="1">
          <mxGeometry width="50" height="50" relative="1" as="geometry">
            <mxPoint x="-200" y="480" as="sourcePoint" />
            <mxPoint x="-120" y="450" as="targetPoint" />
          </mxGeometry>
        </mxCell>
        <mxCell id="VrfV9DheiapsLLjhbMTD-42" value="" style="endArrow=none;dashed=1;html=1;dashPattern=1 4;strokeWidth=1;rounded=0;" edge="1" parent="1">
          <mxGeometry width="50" height="50" relative="1" as="geometry">
            <mxPoint x="-80" y="450" as="sourcePoint" />
            <mxPoint y="475" as="targetPoint" />
          </mxGeometry>
        </mxCell>
        <mxCell id="VrfV9DheiapsLLjhbMTD-44" value="&lt;b&gt;&lt;font style=&quot;font-size: 18px;&quot;&gt;UART Packet Format&lt;/font&gt;&lt;/b&gt;" style="text;html=1;align=center;verticalAlign=middle;resizable=0;points=[];autosize=1;strokeColor=none;fillColor=none;" vertex="1" parent="1">
          <mxGeometry x="-215" y="392" width="200" height="40" as="geometry" />
        </mxCell>
        <mxCell id="VrfV9DheiapsLLjhbMTD-47" value="&lt;span style=&quot;font-size: 10px;&quot;&gt;IDLE&lt;/span&gt;" style="rounded=0;whiteSpace=wrap;html=1;strokeColor=#999999;fontColor=#999999;" vertex="1" parent="1">
          <mxGeometry x="-375" y="650" width="120" height="39.5" as="geometry" />
        </mxCell>
        <mxCell id="VrfV9DheiapsLLjhbMTD-48" value="&lt;span style=&quot;font-size: 10px;&quot;&gt;IDLE&lt;/span&gt;" style="rounded=0;whiteSpace=wrap;html=1;strokeColor=#999999;fontColor=#999999;" vertex="1" parent="1">
          <mxGeometry x="25" y="650" width="120" height="39.5" as="geometry" />
        </mxCell>
        <mxCell id="VrfV9DheiapsLLjhbMTD-45" value="&lt;span style=&quot;font-size: 10px;&quot;&gt;COMMAND WORD&lt;/span&gt;" style="rounded=0;whiteSpace=wrap;html=1;glass=0;shadow=0;textShadow=0;" vertex="1" parent="1">
          <mxGeometry x="-255" y="650" width="120" height="39.5" as="geometry" />
        </mxCell>
        <mxCell id="VrfV9DheiapsLLjhbMTD-46" value="&lt;span style=&quot;font-size: 10px;&quot;&gt;PAYLOAD&lt;/span&gt;" style="rounded=0;whiteSpace=wrap;html=1;" vertex="1" parent="1">
          <mxGeometry x="-95" y="650" width="120" height="39.5" as="geometry" />
        </mxCell>
        <mxCell id="VrfV9DheiapsLLjhbMTD-49" value="&lt;b&gt;&lt;font style=&quot;font-size: 18px;&quot;&gt;UART Protocol&lt;/font&gt;&lt;/b&gt;" style="text;html=1;align=center;verticalAlign=middle;resizable=0;points=[];autosize=1;strokeColor=none;fillColor=none;" vertex="1" parent="1">
          <mxGeometry x="-190" y="570" width="150" height="40" as="geometry" />
        </mxCell>
        <mxCell id="VrfV9DheiapsLLjhbMTD-50" value="" style="endArrow=none;dashed=1;html=1;dashPattern=1 4;strokeWidth=1;rounded=0;" edge="1" parent="1">
          <mxGeometry width="50" height="50" relative="1" as="geometry">
            <mxPoint x="-255" y="650" as="sourcePoint" />
            <mxPoint x="-225" y="630" as="targetPoint" />
          </mxGeometry>
        </mxCell>
        <mxCell id="VrfV9DheiapsLLjhbMTD-51" value="" style="endArrow=none;dashed=1;html=1;dashPattern=1 4;strokeWidth=1;rounded=0;" edge="1" parent="1">
          <mxGeometry width="50" height="50" relative="1" as="geometry">
            <mxPoint x="-165" y="630" as="sourcePoint" />
            <mxPoint x="-135" y="650" as="targetPoint" />
          </mxGeometry>
        </mxCell>
        <mxCell id="VrfV9DheiapsLLjhbMTD-52" value="&lt;font style=&quot;font-size: 10px;&quot;&gt;N+1 bits&lt;/font&gt;" style="text;html=1;align=center;verticalAlign=middle;resizable=0;points=[];autosize=1;strokeColor=none;fillColor=none;" vertex="1" parent="1">
          <mxGeometry x="-225" y="610" width="60" height="30" as="geometry" />
        </mxCell>
        <mxCell id="VrfV9DheiapsLLjhbMTD-53" value="" style="endArrow=none;dashed=1;html=1;dashPattern=1 4;strokeWidth=1;rounded=0;" edge="1" parent="1">
          <mxGeometry width="50" height="50" relative="1" as="geometry">
            <mxPoint x="-95" y="650" as="sourcePoint" />
            <mxPoint x="-65" y="630" as="targetPoint" />
          </mxGeometry>
        </mxCell>
        <mxCell id="VrfV9DheiapsLLjhbMTD-54" value="" style="endArrow=none;dashed=1;html=1;dashPattern=1 4;strokeWidth=1;rounded=0;" edge="1" parent="1">
          <mxGeometry width="50" height="50" relative="1" as="geometry">
            <mxPoint x="-5" y="630" as="sourcePoint" />
            <mxPoint x="25" y="650" as="targetPoint" />
          </mxGeometry>
        </mxCell>
        <mxCell id="VrfV9DheiapsLLjhbMTD-55" value="&lt;font style=&quot;font-size: 10px;&quot;&gt;N+1 bits&lt;/font&gt;" style="text;html=1;align=center;verticalAlign=middle;resizable=0;points=[];autosize=1;strokeColor=none;fillColor=none;" vertex="1" parent="1">
          <mxGeometry x="-65" y="610" width="60" height="30" as="geometry" />
        </mxCell>
        <mxCell id="VrfV9DheiapsLLjhbMTD-56" value="&lt;span style=&quot;font-size: 10px;&quot;&gt;...&lt;/span&gt;" style="rounded=0;whiteSpace=wrap;html=1;strokeColor=#999999;fontColor=#999999;" vertex="1" parent="1">
          <mxGeometry x="-135" y="650" width="40" height="39.5" as="geometry" />
        </mxCell>
        <mxCell id="VrfV9DheiapsLLjhbMTD-65" value="input = x&quot;BB&quot;" style="text;html=1;align=center;verticalAlign=middle;resizable=0;points=[];autosize=1;strokeColor=none;fillColor=default;fontSize=8;" vertex="1" parent="1">
          <mxGeometry x="450" y="265" width="70" height="20" as="geometry" />
        </mxCell>
        <mxCell id="VrfV9DheiapsLLjhbMTD-64" value="input = x&quot;AA&quot;" style="text;html=1;align=center;verticalAlign=middle;resizable=0;points=[];autosize=1;fontSize=8;fillColor=default;perimeterSpacing=0;labelPadding=0;" vertex="1" parent="1">
          <mxGeometry x="364" y="265" width="70" height="20" as="geometry" />
        </mxCell>
        <mxCell id="VrfV9DheiapsLLjhbMTD-68" value="&lt;b&gt;&lt;font style=&quot;font-size: 18px;&quot;&gt;FIR State Diagram&lt;/font&gt;&lt;/b&gt;" style="text;html=1;align=center;verticalAlign=middle;resizable=0;points=[];autosize=1;strokeColor=none;fillColor=none;" vertex="1" parent="1">
          <mxGeometry x="351" y="146" width="180" height="40" as="geometry" />
        </mxCell>
      </root>
    </mxGraphModel>
  </diagram>
</mxfile>
